Coordinates
version=1
nRows=14
nColumns=40
inDegrees=yes
endheader
time	pelvis_tilt	pelvis_list	pelvis_rotation	pelvis_tx	pelvis_ty	pelvis_tz	hip_flexion_r	hip_adduction_r	hip_rotation_r	knee_angle_r	knee_angle_r_beta	ankle_angle_r	subtalar_angle_r	mtp_angle_r	hip_flexion_l	hip_adduction_l	hip_rotation_l	knee_angle_l	knee_angle_l_beta	ankle_angle_l	subtalar_angle_l	mtp_angle_l	lumbar_extension	lumbar_bending	lumbar_rotation	arm_flex_r	arm_add_r	arm_rot_r	elbow_flex_r	pro_sup_r	wrist_flex_r	wrist_dev_r	arm_flex_l	arm_add_l	arm_rot_l	elbow_flex_l	pro_sup_l	wrist_flex_l	wrist_dev_l
1760625070.61917996	      1.77751864	     -2.20813569	      0.49096365	      0.16539873	      0.86560171	      0.00073182	     80.00000000	     -7.00000000	      0.00000000	     80.00000000	      1.39626340	      0.00000000	      0.00000000	      0.00000000	     80.00000000	     -7.00000000	      0.00000000	     80.00000000	      1.39626340	      0.00000000	      0.00000000	      0.00000000	    -10.79103730	     -0.72634671	      1.69525646	      3.82645529	     -5.69199382	     16.44548146	      0.00000000	      0.00000000	    -16.95252727	    -16.92591078	      6.42345718	     -5.63828923	     15.92175005	      0.00000000	      9.96274014	    -12.19788731	     -4.90097789
1760625070.62917995	      1.77910026	     -2.19678153	      0.47844876	      0.16530175	      0.86553933	      0.00059703	     80.00000000	     -7.00000000	      0.00000000	     80.00000000	      1.39626340	      0.00000000	      0.00000000	      0.00000000	     80.00000000	     -7.00000000	      0.00000000	     80.00000000	      1.39626340	      0.00000000	      0.00000000	      0.00000000	    -10.79168917	     -0.71569434	      1.68620147	      3.81748757	     -5.68175947	     16.44398337	      0.00000000	      0.00000000	    -16.95480342	    -16.92572249	      6.43224604	     -5.63763768	     15.92072960	      0.00000000	      9.96000889	    -12.19997964	     -4.90051248
1760625070.63917994	      1.78256203	     -2.19048843	      0.46489073	      0.16523489	      0.86548034	      0.00049008	     80.00000000	     -7.00000000	      0.00000000	     80.00000000	      1.39626340	      0.00000000	      0.00000000	      0.00000000	     80.00000000	     -7.00000000	      0.00000000	     80.00000000	      1.39626340	      0.00000000	      0.00000000	      0.00000000	    -10.79092383	     -0.71003575	      1.67538540	      3.80847798	     -5.67091672	     16.44224424	      0.00000000	      0.00000000	    -16.95753134	    -16.92559244	      6.44559320	     -5.63413908	     15.91941680	      0.00000000	      9.95662962	    -12.20253574	     -4.89986539
1760625070.64917994	      1.78385312	     -2.19014113	      0.46227190	      0.16516160	      0.86543752	      0.00039625	     80.00000000	     -7.00000000	      0.00000000	     80.00000000	      1.39626340	      0.00000000	      0.00000000	      0.00000000	     80.00000000	     -7.00000000	      0.00000000	     80.00000000	      1.39626340	      0.00000000	      0.00000000	      0.00000000	    -10.79054231	     -0.70929013	      1.67364725	      3.80680840	     -5.66842401	     16.44189290	      0.00000000	      0.00000000	    -16.95786095	    -16.92550871	      6.44731742	     -5.63378316	     15.91925353	      0.00000000	      9.95620243	    -12.20285222	     -4.89978622
1760625070.65917993	      1.78698213	     -2.17836180	      0.44335822	      0.16511475	      0.86531067	      0.00030652	     80.00000000	     -7.00000000	      0.00000000	     80.00000000	      1.39626340	      0.00000000	      0.00000000	      0.00000000	     80.00000000	     -7.00000000	      0.00000000	     80.00000000	      1.39626340	      0.00000000	      0.00000000	      0.00000000	    -10.79123167	     -0.69693017	      1.65914251	      3.79864795	     -5.63969050	     16.43918822	      0.00000000	      0.00000000	    -16.95977263	    -16.92439399	      6.46522259	     -5.61641437	     15.91759655	      0.00000000	      9.95240274	    -12.20530950	     -4.89884745
1760625070.66917992	      1.78686985	     -2.17297648	      0.43115595	      0.16501515	      0.86535620	      0.00017358	     80.00000000	     -7.00000000	      0.00000000	     80.00000000	      1.39626340	      0.00000000	      0.00000000	      0.00000000	     80.00000000	     -7.00000000	      0.00000000	     80.00000000	      1.39626340	      0.00000000	      0.00000000	      0.00000000	    -10.79498674	     -0.69142851	      1.65034379	      3.79468826	     -5.61108429	     16.43655048	      0.00000000	      0.00000000	    -16.96199034	    -16.92326072	      6.47771731	     -5.59822757	     15.91530209	      0.00000000	      9.94789174	    -12.20831497	     -4.89772522
1760625070.67917991	      1.78895589	     -2.16420671	      0.41924973	      0.16495548	      0.86526739	      0.00004191	     80.00000000	     -7.00000000	      0.00000000	     80.00000000	      1.39626340	      0.00000000	      0.00000000	      0.00000000	     80.00000000	     -7.00000000	      0.00000000	     80.00000000	      1.39626340	      0.00000000	      0.00000000	      0.00000000	    -10.79671962	     -0.68130765	      1.64220554	      3.79203465	     -5.58210155	     16.43447260	      0.00000000	      0.00000000	    -16.96362517	    -16.92239484	      6.49093283	     -5.58415067	     15.91389612	      0.00000000	      9.94478769	    -12.21035407	     -4.89691745
1760625070.68917990	      1.78796310	     -2.16515777	      0.40673480	      0.16488328	      0.86527009	      0.00000262	     80.00000000	     -7.00000000	      0.00000000	     80.00000000	      1.39626340	      0.00000000	      0.00000000	      0.00000000	     80.00000000	     -7.00000000	      0.00000000	     80.00000000	      1.39626340	      0.00000000	      0.00000000	      0.00000000	    -10.80396309	     -0.68175239	      1.63175684	      3.79233638	     -5.54739901	     16.43102000	      0.00000000	      0.00000000	    -16.96773099	    -16.92096739	      6.51329737	     -5.55668413	     15.91128198	      0.00000000	      9.93876384	    -12.21390630	     -4.89583669
1760625070.69917989	      1.79198449	     -2.15719904	      0.39652561	      0.16479216	      0.86523438	     -0.00013663	     80.00000000	     -7.00000000	      0.00000000	     80.00000000	      1.39626340	      0.00000000	      0.00000000	      0.00000000	     80.00000000	     -7.00000000	      0.00000000	     80.00000000	      1.39626340	      0.00000000	      0.00000000	      0.00000000	    -10.80450156	     -0.67204796	      1.62564974	      3.79784605	     -5.51752930	     16.42911112	      0.00000000	      0.00000000	    -16.96964527	    -16.91995745	      6.52618398	     -5.54182274	     15.90952673	      0.00000000	      9.93500905	    -12.21659119	     -4.89541281
1760625070.70918012	      1.79181846	     -2.15918246	      0.39430041	      0.16477374	      0.86520022	     -0.00022396	     80.00000000	     -7.00000000	      0.00000000	     80.00000000	      1.39626340	      0.00000000	      0.00000000	      0.00000000	     80.00000000	     -7.00000000	      0.00000000	     80.00000000	      1.39626340	      0.00000000	      0.00000000	      0.00000000	    -10.80543738	     -0.67328750	      1.62390662	      3.79728152	     -5.51368248	     16.42872778	      0.00000000	      0.00000000	    -16.96994639	    -16.91980692	      6.52828556	     -5.53925227	     15.90934470	      0.00000000	      9.93458725	    -12.21685802	     -4.89534523
1760625070.71918011	      1.78712871	     -2.15928218	      0.37708132	      0.16466841	      0.86518222	     -0.00025468	     80.00000000	     -7.00000000	      0.00000000	     80.00000000	      1.39626340	      0.00000000	      0.00000000	      0.00000000	     80.00000000	     -7.00000000	      0.00000000	     80.00000000	      1.39626340	      0.00000000	      0.00000000	      0.00000000	    -10.81577814	     -0.67101347	      1.60997316	      3.80285192	     -5.45894756	     16.42457430	      0.00000000	      0.00000000	    -16.97354169	    -16.91772380	      6.55114420	     -5.49258107	     15.90626810	      0.00000000	      9.92890000	    -12.21991389	     -4.89406061
1760625070.72918010	      1.78962647	     -2.15474116	      0.36622150	      0.16463300	      0.86508502	     -0.00034475	     80.00000000	     -7.00000000	      0.00000000	     80.00000000	      1.39626340	      0.00000000	      0.00000000	      0.00000000	     80.00000000	     -7.00000000	      0.00000000	     80.00000000	      1.39626340	      0.00000000	      0.00000000	      0.00000000	    -10.81814259	     -0.66486968	      1.60291416	      3.81453806	     -5.42587716	     16.42194197	      0.00000000	      0.00000000	    -16.97561910	    -16.91616245	      6.56763000	     -5.46707591	     15.90440379	      0.00000000	      9.92507847	    -12.22200553	     -4.89334377
1760625070.73918009	      1.78576021	     -2.15652939	      0.35453795	      0.16457181	      0.86501067	     -0.00041882	     80.00000000	     -7.00000000	      0.00000000	     80.00000000	      1.39626340	      0.00000000	      0.00000000	      0.00000000	     80.00000000	     -7.00000000	      0.00000000	     80.00000000	      1.39626340	      0.00000000	      0.00000000	      0.00000000	    -10.82694263	     -0.66439857	      1.59352769	      3.81999605	     -5.40191028	     16.41930084	      0.00000000	      0.00000000	    -16.97765355	    -16.91481560	      6.58030482	     -5.44455156	     15.90263943	      0.00000000	      9.92163322	    -12.22411158	     -4.89285155
1760625070.74918008	      1.78225020	     -2.15671945	      0.34288846	      0.16445594	      0.86504379	     -0.00048728	     80.00000000	     -7.00000000	      0.00000000	     80.00000000	      1.39626340	      0.00000000	      0.00000000	      0.00000000	     80.00000000	     -7.00000000	      0.00000000	     80.00000000	      1.39626340	      0.00000000	      0.00000000	      0.00000000	    -10.83955631	     -0.66230282	      1.58520985	      3.83772607	     -5.36403065	     16.41555623	      0.00000000	      0.00000000	    -16.98143943	    -16.91288112	      6.59316899	     -5.40781290	     15.89897101	      0.00000000	      9.91533772	    -12.22848239	     -4.89171185
